<svg width="1200" height="900" viewBox="0 0 1200 900" fill="none" xmlns="http://www.w3.org/2000/svg">
  <rect width="1200" height="900" fill="#030303"/>
  <radialGradient id="g" cx="0" cy="0" r="1" gradientUnits="userSpaceOnUse" gradientTransform="translate(570 420) rotate(90) scale(430)">
    <stop stop-color="#67131D" stop-opacity="0.85"/>
    <stop offset="1" stop-color="#030303" stop-opacity="0"/>
  </radialGradient>
  <rect width="1200" height="900" fill="url(#g)"/>
  <g opacity="0.22" stroke="#62D6FF" stroke-width="1">
    <path d="M0 160H1200M0 280H1200M0 400H1200M0 520H1200M0 640H1200M160 0V900M320 0V900M480 0V900M640 0V900M800 0V900M960 0V900"/>
  </g>
  <rect x="86" y="86" width="1028" height="728" rx="8" fill="#0A0A0D" stroke="#C9A45C" stroke-opacity="0.45"/>
  <text x="120" y="166" font-family="Arial" font-size="28" font-weight="800" fill="#C9A45C" letter-spacing="8">CENTRO DE COMANDO</text>
  <text x="120" y="242" font-family="Georgia" font-size="74" font-weight="700" fill="#F5EFE3">Centro de comando</text>
  <text x="120" y="316" font-family="Georgia" font-size="74" font-weight="700" fill="#F5EFE3">para execução com IA</text>
  <g stroke="#E23045" stroke-width="3" opacity="0.85">
    <circle cx="602" cy="520" r="82"/>
    <circle cx="602" cy="520" r="154" opacity="0.35"/>
    <circle cx="602" cy="520" r="232" opacity="0.18"/>
  </g>
  <circle cx="602" cy="520" r="46" fill="#C9A45C"/>
  <text x="575" y="532" font-family="Arial" font-size="30" font-weight="900" fill="#030303">IA</text>
  <g font-family="Arial" font-size="22" font-weight="800" fill="#F5EFE3">
    <rect x="198" y="462" width="190" height="58" fill="#111" stroke="#C9A45C" stroke-opacity="0.65"/><text x="220" y="499">TRÁFEGO</text>
    <rect x="790" y="430" width="210" height="58" fill="#111" stroke="#C9A45C" stroke-opacity="0.65"/><text x="812" y="467">VENDAS</text>
    <rect x="250" y="662" width="170" height="58" fill="#111" stroke="#C9A45C" stroke-opacity="0.65"/><text x="272" y="699">DOCS</text>
    <rect x="752" y="642" width="250" height="58" fill="#111" stroke="#C9A45C" stroke-opacity="0.65"/><text x="774" y="679">RELATÓRIOS</text>
  </g>
</svg>
