<svg width="1200" height="900" viewBox="0 0 1200 900" fill="none" xmlns="http://www.w3.org/2000/svg">
  <defs>
    <linearGradient id="bg" x1="0" y1="0" x2="1200" y2="900" gradientUnits="userSpaceOnUse">
      <stop stop-color="#050608"/>
      <stop offset="0.48" stop-color="#0B0D12"/>
      <stop offset="1" stop-color="#16070B"/>
    </linearGradient>
    <linearGradient id="gold" x1="248" y1="148" x2="982" y2="721" gradientUnits="userSpaceOnUse">
      <stop stop-color="#F4D78E"/>
      <stop offset="1" stop-color="#A67C35"/>
    </linearGradient>
    <linearGradient id="cyan" x1="244" y1="141" x2="1022" y2="697" gradientUnits="userSpaceOnUse">
      <stop stop-color="#76E4FF" stop-opacity="0.9"/>
      <stop offset="1" stop-color="#76E4FF" stop-opacity="0"/>
    </linearGradient>
    <filter id="glow" x="-40%" y="-40%" width="180%" height="180%">
      <feGaussianBlur stdDeviation="18" result="blur"/>
      <feColorMatrix in="blur" type="matrix" values="1 0 0 0 0.87 0 1 0 0 0.55 0 0 1 0 0.16 0 0 0 0.65 0"/>
      <feBlend in="SourceGraphic"/>
    </filter>
    <filter id="soft" x="-30%" y="-30%" width="160%" height="160%">
      <feDropShadow dx="0" dy="30" stdDeviation="35" flood-color="#000" flood-opacity="0.55"/>
    </filter>
    <pattern id="grid" width="52" height="52" patternUnits="userSpaceOnUse">
      <path d="M52 0H0V52" stroke="#FFFFFF" stroke-opacity="0.055" stroke-width="1"/>
    </pattern>
  </defs>

  <rect width="1200" height="900" rx="34" fill="url(#bg)"/>
  <rect width="1200" height="900" rx="34" fill="url(#grid)"/>
  <circle cx="950" cy="164" r="300" fill="#79DCFF" fill-opacity="0.08"/>
  <circle cx="243" cy="740" r="360" fill="#E13A4B" fill-opacity="0.11"/>

  <g filter="url(#soft)">
    <rect x="112" y="92" width="976" height="696" rx="34" fill="#080A0E" fill-opacity="0.88" stroke="#F5EFE3" stroke-opacity="0.13"/>
    <rect x="112" y="92" width="976" height="78" rx="34" fill="#FFFFFF" fill-opacity="0.045"/>
    <circle cx="158" cy="132" r="10" fill="#E13A4B"/>
    <circle cx="190" cy="132" r="10" fill="#C9A45C"/>
    <circle cx="222" cy="132" r="10" fill="#79DCFF"/>
    <text x="938" y="137" text-anchor="end" font-family="Inter, Arial" font-size="15" font-weight="800" letter-spacing="5" fill="#D8CDB8" fill-opacity="0.75">OPSCORE</text>
  </g>

  <g opacity="0.95">
    <rect x="154" y="214" width="254" height="488" rx="26" fill="#FFFFFF" fill-opacity="0.045" stroke="#F5EFE3" stroke-opacity="0.10"/>
    <text x="186" y="262" font-family="Inter, Arial" font-size="13" font-weight="900" letter-spacing="4" fill="#F0D08A">FRENTES</text>
    <g font-family="Inter, Arial" font-size="21" font-weight="800" fill="#F5EFE3">
      <text x="186" y="322">Landing pages</text>
      <text x="186" y="392">Relatórios</text>
      <text x="186" y="462">Documentos</text>
      <text x="186" y="532">Vendas</text>
      <text x="186" y="602">Tráfego</text>
    </g>
    <g fill="#C9A45C">
      <circle cx="358" cy="315" r="6"/><circle cx="358" cy="385" r="6"/><circle cx="358" cy="455" r="6"/><circle cx="358" cy="525" r="6"/><circle cx="358" cy="595" r="6"/>
    </g>
    <g stroke="#FFFFFF" stroke-opacity="0.08">
      <path d="M186 351H376"/><path d="M186 421H376"/><path d="M186 491H376"/><path d="M186 561H376"/><path d="M186 631H376"/>
    </g>
  </g>

  <g transform="translate(460 198)">
    <rect x="0" y="0" width="456" height="360" rx="30" fill="#030406" stroke="#F5EFE3" stroke-opacity="0.11"/>
    <circle cx="228" cy="180" r="126" stroke="#C9A45C" stroke-opacity="0.27" stroke-width="1.5"/>
    <circle cx="228" cy="180" r="190" stroke="#79DCFF" stroke-opacity="0.13" stroke-width="1.5"/>
    <path d="M54 257C135 181 208 268 292 185C344 133 381 138 418 105" stroke="url(#cyan)" stroke-width="2.5"/>
    <path d="M62 284C135 238 201 285 267 238C340 186 362 212 410 174" stroke="#E13A4B" stroke-opacity="0.45" stroke-width="2"/>
    <g filter="url(#glow)">
      <circle cx="228" cy="180" r="58" fill="url(#gold)"/>
      <text x="228" y="188" text-anchor="middle" font-family="Inter, Arial" font-size="24" font-weight="950" letter-spacing="4" fill="#050505">OPS</text>
    </g>
    <circle cx="130" cy="105" r="8" fill="#79DCFF"/><circle cx="348" cy="96" r="8" fill="#E13A4B"/><circle cx="333" cy="278" r="8" fill="#C9A45C"/><circle cx="120" cy="268" r="8" fill="#F5EFE3" fill-opacity="0.75"/>
  </g>

  <g>
    <rect x="462" y="598" width="238" height="104" rx="24" fill="#FFFFFF" fill-opacity="0.055" stroke="#F5EFE3" stroke-opacity="0.12"/>
    <text x="492" y="637" font-family="Inter, Arial" font-size="12" font-weight="900" letter-spacing="4" fill="#F0D08A">ENTREGA</text>
    <text x="492" y="676" font-family="Inter, Arial" font-size="26" font-weight="850" fill="#F5EFE3">Página pronta</text>
    <rect x="736" y="598" width="282" height="104" rx="24" fill="#FFFFFF" fill-opacity="0.055" stroke="#F5EFE3" stroke-opacity="0.12"/>
    <text x="766" y="637" font-family="Inter, Arial" font-size="12" font-weight="900" letter-spacing="4" fill="#79DCFF">MEMÓRIA</text>
    <text x="766" y="676" font-family="Inter, Arial" font-size="26" font-weight="850" fill="#F5EFE3">Decisões salvas</text>
  </g>

  <path d="M118 789H1082" stroke="#F5EFE3" stroke-opacity="0.10"/>
  <text x="154" y="838" font-family="Inter, Arial" font-size="13" font-weight="800" letter-spacing="5" fill="#D8CDB8" fill-opacity="0.62">CENTRO DE COMANDO PARA OPERAÇÕES COM IA</text>
</svg>
