<svg width="1200" height="1000" viewBox="0 0 1200 1000" fill="none" xmlns="http://www.w3.org/2000/svg">
  <rect width="1200" height="1000" fill="#030303"/>
  <radialGradient id="r" cx="0" cy="0" r="1" gradientUnits="userSpaceOnUse" gradientTransform="translate(600 500) rotate(90) scale(500)">
    <stop stop-color="#E23045" stop-opacity="0.34"/>
    <stop offset="1" stop-color="#030303" stop-opacity="0"/>
  </radialGradient>
  <rect width="1200" height="1000" fill="url(#r)"/>
  <g opacity="0.20" stroke="#62D6FF">
    <path d="M0 100H1200M0 200H1200M0 300H1200M0 400H1200M0 500H1200M0 600H1200M0 700H1200M0 800H1200M0 900H1200M100 0V1000M200 0V1000M300 0V1000M400 0V1000M500 0V1000M600 0V1000M700 0V1000M800 0V1000M900 0V1000M1000 0V1000M1100 0V1000"/>
  </g>
  <rect x="105" y="90" width="990" height="800" rx="10" fill="#08090C" stroke="#C9A45C" stroke-opacity="0.45"/>
  <text x="150" y="165" font-family="Arial" font-size="24" font-weight="900" fill="#C9A45C" letter-spacing="8">LIVE OPS · COMMAND CENTER</text>
  <circle cx="600" cy="515" r="250" stroke="#E23045" stroke-width="3" opacity="0.35"/>
  <circle cx="600" cy="515" r="170" stroke="#C9A45C" stroke-width="3" opacity="0.45"/>
  <circle cx="600" cy="515" r="86" fill="#C9A45C"/>
  <text x="548" y="532" font-family="Arial" font-size="42" font-weight="900" fill="#030303">OPS</text>
  <g stroke="#F5EFE3" stroke-opacity="0.55" stroke-width="2">
    <path d="M600 515L302 316M600 515L890 300M600 515L265 704M600 515L915 724M600 515L600 230M600 515L600 825"/>
  </g>
  <g font-family="Arial" font-size="22" font-weight="900" fill="#F5EFE3">
    <rect x="212" y="270" width="180" height="64" fill="#111216" stroke="#C9A45C"/><text x="236" y="310">LANDING</text>
    <rect x="805" y="254" width="170" height="64" fill="#111216" stroke="#C9A45C"/><text x="829" y="294">TRÁFEGO</text>
    <rect x="192" y="666" width="156" height="64" fill="#111216" stroke="#C9A45C"/><text x="230" y="706">DOCS</text>
    <rect x="825" y="686" width="166" height="64" fill="#111216" stroke="#C9A45C"/><text x="866" y="726">PDFS</text>
    <rect x="505" y="196" width="190" height="64" fill="#111216" stroke="#C9A45C"/><text x="531" y="236">VENDAS</text>
    <rect x="478" y="798" width="244" height="64" fill="#111216" stroke="#C9A45C"/><text x="500" y="838">RELATÓRIOS</text>
  </g>
</svg>
