<svg xmlns="http://www.w3.org/2000/svg" width="1200" height="1400" viewBox="0 0 1200 1400">
  <defs>
    <linearGradient id="bg" x1="0" y1="0" x2="1" y2="1"><stop stop-color="#0B1020"/><stop offset="1" stop-color="#111827"/></linearGradient>
    <linearGradient id="card" x1="0" y1="0" x2="1" y2="1"><stop stop-color="#F5F3EA"/><stop offset="1" stop-color="#E8E2D4"/></linearGradient>
    <filter id="shadow" x="-20%" y="-20%" width="140%" height="140%"><feDropShadow dx="0" dy="28" stdDeviation="24" flood-opacity=".28"/></filter>
  </defs>
  <rect width="1200" height="1400" rx="28" fill="url(#bg)"/>
  <circle cx="955" cy="205" r="190" fill="#19B7B5" opacity=".18"/>
  <circle cx="180" cy="1160" r="260" fill="#D6B25E" opacity=".16"/>
  <g filter="url(#shadow)">
    <rect x="120" y="150" width="960" height="230" rx="26" fill="url(#card)"/>
    <rect x="170" y="205" width="240" height="28" rx="14" fill="#19B7B5"/>
    <rect x="170" y="255" width="690" height="18" rx="9" fill="#111827" opacity=".75"/>
    <rect x="170" y="295" width="520" height="18" rx="9" fill="#111827" opacity=".35"/>
  </g>
  <g filter="url(#shadow)">
    <rect x="120" y="460" width="440" height="330" rx="26" fill="#F5F3EA"/>
    <text x="170" y="545" font-family="Inter, Arial" font-size="36" font-weight="800" fill="#0B1020">SITE</text>
    <rect x="170" y="595" width="300" height="16" rx="8" fill="#0B1020" opacity=".45"/>
    <rect x="170" y="635" width="235" height="16" rx="8" fill="#0B1020" opacity=".25"/>
    <rect x="170" y="695" width="190" height="54" rx="27" fill="#111827"/>
  </g>
  <g filter="url(#shadow)">
    <rect x="640" y="460" width="440" height="330" rx="26" fill="#F5F3EA"/>
    <text x="690" y="545" font-family="Inter, Arial" font-size="36" font-weight="800" fill="#0B1020">TRÁFEGO</text>
    <path d="M700 710 C760 650 820 685 875 610 C920 550 980 565 1030 520" fill="none" stroke="#19B7B5" stroke-width="16" stroke-linecap="round"/>
    <circle cx="700" cy="710" r="14" fill="#D6B25E"/><circle cx="875" cy="610" r="14" fill="#D6B25E"/><circle cx="1030" cy="520" r="14" fill="#D6B25E"/>
  </g>
  <g filter="url(#shadow)">
    <rect x="120" y="870" width="960" height="330" rx="26" fill="#F5F3EA"/>
    <text x="170" y="955" font-family="Inter, Arial" font-size="36" font-weight="800" fill="#0B1020">DOCS · PDFS · RELATÓRIOS</text>
    <rect x="170" y="1015" width="770" height="18" rx="9" fill="#111827" opacity=".5"/>
    <rect x="170" y="1060" width="620" height="18" rx="9" fill="#111827" opacity=".3"/>
    <rect x="170" y="1105" width="700" height="18" rx="9" fill="#111827" opacity=".2"/>
  </g>
</svg>
